<svg xmlns="http://www.w3.org/2000/svg" viewBox="0 0 2716.8 864"  xmlns:v="https://vecta.io/nano"><circle cx="411.8" cy="432" r="321.9" fill="#ffe29e" stroke="#9b5933" stroke-width="10"/><path d="M255.8 295.9v-1.7c.1-8.3-.2-16.7.4-24.9.8-10.3 6.5-17.8 15.3-22.9 2.1-1.2 4.5-1.5 7.1-1.4 4.9.2 9.9 0 14.8 0h3.7 51.6c2.3 0 4.7.5 6.7 1.4 6.5 3.1 12 7.4 15 14.3.8 1.8 1.2 3.8 1.2 5.8V371v1.7h33.6v-1.8-66.1c0-3.1-.3-6.2.1-9.3 1.2-9 8.7-14.4 17.2-11.1 4.6 1.8 6 6 6.3 10.5.2 2.8 0 5.5 0 8.3v165.9c0 1.7.5 3.1 1.3 4.7 3.4 6.7 6.6 13.4 9.8 20.2l9.6 21.7c2.6 5.6 5.7 10.9 8.2 16.5 2 4.4 3.2 9.1 5 13.5 2.3 5.7 4.8 11.2 7.2 16.9.2 0 .4-.1.6-.1v-1.6-120.5c0-3.2.3-3.5 3.5-3.4h40.1c.3 0 .6-.1 1-.1 0-.4.1-.8.1-1.2v-26.1l-.3-28.3c0-5.4 2.6-9.6 6.3-13.3.9-.9 1.8-1.6 2.8-2.4 2.4-1.9 4.9-3 8.3-3l56.1.2c5.4 0 10.7.6 16 1.3 3.8.5 7 2.4 9.2 5.4 2 2.7 3.8 5.7 5.3 8.8.8 1.6 1.1 3.6 1.1 5.5v118.3c0 .8 0 1.7.3 2.4 3.5 7.7 5.1 15.9 7.4 23.9 1.5 5.4 3.9 10.6 6.2 15.7 4.9 10.8 10.7 21.3 17.2 31.3.9 1.4.7 2.7-.4 4.1l-11.1 15.2c-3 4.1-6.3 8-9.4 12l-12.5 16.6c-1.2 1.6-2.9 3-4.5 4.2-7.4 5.5-13.9 11.9-20.4 18.3-3.4 3.4-7.2 6.3-11.5 8.6-2 1-3.6 2.8-5.4 4.1-9 6.9-18.4 13.1-28.2 18.8-1.4.8-2.7 1.9-4 2.9-5.2 3.8-11.1 6.2-17 8.7-6 2.4-11.9 4.8-17.8 7.5-6.7 3-13.7 5-20.8 6.8-8.7 2.3-17.4 4-26.5 4.5-5.7.3-11.4 1.5-17.2 1.9-8.6.6-17.3 1-25.9 1.3l-40.7 1.2c-3.4.1-6.9-.3-10.1-1.3-8-2.6-16.3-4.3-24.5-6-9.7-2-19-5.8-28.2-9.2-10.3-3.8-20.5-7.8-30.6-11.9-6.6-2.7-12.4-6.9-18.1-11.1-7-5.2-14.4-10-21.5-15.1-2.4-1.7-4.5-3.8-6.6-5.8-5-4.8-10.4-9.1-16.3-12.8-1.5-.9-2.7-2.3-3.9-3.6l-10.9-12.1-18.8-22.7c-2.9-3.5-6.2-6.9-8.8-10.6-2.5-3.6-4.5-7.5-6.5-11.4-.4-.8-.5-2.1-.1-3 2.5-6.7 5-13.4 7.9-19.9 5.8-13.3 12.1-26.4 17.5-39.8 5.2-13 10.9-25.7 17.4-38.1 2.2-4.2 3.1-8.5 3.1-13.2V331.2c0-3.4.1-6.8.5-10.1.6-4.5 2.5-8.6 5.3-12.2 3.6-4.6 7.5-8.9 12.5-12 .8-.5 1.8-.8 2.8-.8 4.8-.1 9.6 0 14.5 0 .5-.1.8-.2 1.4-.2zm389.4 283.4H178.1c1.6 2.7 2.9 5.2 4.6 7.3 2.4 3.2 5.1 6.2 7.6 9.2l22.9 27.5c1.9 2.3 4.3 4.2 6.1 6.6 2.2 2.8 4.7 5.3 7.7 7.2 2.3 1.4 4.6 3 6.6 4.7 4.7 4 9.1 8.5 14 12.3 7.6 5.7 15.6 10.8 23.2 16.5 6.7 5 14 9 21.7 12.1l29.6 11c7.9 3 15.9 5.9 24.2 7.5 7.5 1.4 14.9 3.3 22.2 5.4 3.6 1 7.5 1.2 11.3 1.2 7.1 0 14.2-.8 21.3-.7 21.7 0 43.3-1.1 64.8-3.9 5-.7 10-1.5 14.9-2.6 9.8-2.1 19.4-4.6 28.5-8.9 3.7-1.7 7.4-3.3 11.2-4.8 8.4-3.3 17-6.2 23.9-12.5.1-.1.2-.1.3-.2l21.9-13.9c4.5-3 8.6-6.7 13.2-9.6 4.5-2.8 8.6-6.2 12.5-9.9 5.3-5 10.7-9.8 16.2-14.6 3.5-3 6.9-5.9 9.3-9.9 1-1.7 2.3-3.2 3.6-4.8 4.5-5.6 9.1-11 13.4-16.8 3.6-4.9 6.9-10.2 10.4-15.4zm-174.7-4.4c-.3-1.3-.4-2.4-.8-3.4-1.4-3-3-5.9-4.4-8.9-2.6-5.7-5.3-11.4-7.5-17.3-3-8-5.9-15.9-10-23.5-3.7-6.8-6.4-14.1-9.7-21.1-3.7-8-7.4-16.1-11.5-23.9-1.5-2.7-2.1-5.2-2.1-8.2V302.2c0-2.5.1-5.1 0-7.6-.2-3.5-1.8-5.5-4.5-6.3-5.6-1.5-9.6 2.2-10.5 7.5-.4 2.3-.1 4.7-.1 7.1v69.6c0 4.7 0 4.7-4.7 4.7h-33.8c-3.2 0-3.6-.4-3.6-3.7V266.7c0-1.5-.4-3.2-1-4.6-2.4-5.2-6.8-8.5-11.7-11.2-1.6-.9-3.6-1.5-5.4-1.5-17.1-.1-34.2 0-51.3 0-.5 0-1 .1-1.4.1V575l174-.1zm-178.5 0V249.3c-4.7 0-9.2.2-13.6-.1-3.5-.2-6.3 1.1-8.7 3.3-6.3 5.6-9.8 12.4-9.6 21v23.6c0 2.2-.7 3-3 3h-15.6a5.39 5.39 0 0 0-3 1c-2.2 1.7-4.2 3.6-6.2 5.5-4.1 4-7.6 8.5-8.4 14.4-.6 4.3-.6 8.8-.6 13.2l-.1 134.5c0 2.2-.5 4.5-1.5 6.5-2.8 6-6 11.9-8.7 17.9-4.2 9.3-8 18.7-12.1 28.1-2.6 6.1-5.4 12.2-8.1 18.2l-12.9 29.3c-.8 1.9-1.4 3.9-2.2 6l114.3.2zm353.7-.1l-.7-1.4c-7.3-11.9-13.6-24.4-19-37.3-.7-1.7-1.5-3.5-1.9-5.3-1.8-7.7-3.4-15.5-6.7-22.8-1-2.3-1.5-4.5-1.5-7.1l.1-115.3c0-3-.6-5.8-2.1-8.4-2.9-5.5-7-9.3-13.5-9.5l-16.1-.6c-17.8-.1-35.6 0-53.4 0-.7 0-1.5.1-2 .5-5.5 4-10.1 8.3-9.5 16.2.6 8.2.2 16.5.2 24.8v90.9 73.6 1.8l126.1-.1zM515.2 441.4h-40.3v133.4h40.3V441.4z" fill="#733416"/><path d="M477.8 246.8c-1.8-28.3 18.6-53.2 46.6-57.2 10.6-1.5 21.1-1.6 31.2 2.4 20.9 8.2 33.2 23.4 37 45.5 1.8 10.5-.3 20.6-3.4 30.6-.7 2.3-1.3 4.5-2.1 6.8-.1.4-.4.8-.7 1.1l-12.5 14c-5.5 6.1-12.7 9-20.4 11.2-2.6.7-5.1 2.1-7.7 2.6-12.3 2.4-24 .4-34.9-5.5-13.1-7.1-23-17.4-29.7-30.7-2.6-5.2-3.8-10.7-3.5-16.6.2-1.4.1-2.8.1-4.2zm59.9-54.3l-7.4.8c-5.4.3-10.7 1.2-15.7 3.2-19.8 8.1-30.7 22.9-32.6 44.3-.3 3.3.5 6.8.2 10.1-.3 4.2.3 8.2 1.8 12 4.7 11.7 12.7 20.9 23 28 10.5 7.2 22 10.9 34.8 9.3 1.1-.1 2.2-.7 3.3-1.2 1-.4 1.8-1.2 2.8-1.4 1.8-.4 3.7-.3 5.5-.8 6.4-1.8 12.5-4.2 17.1-9.3 4-4.3 7.8-8.8 11.7-13.2.4-.4.7-1 .9-1.6 1.7-5.9 3.9-11.7 4.9-17.7 3.1-17.8-1.8-33.4-14.2-46.4-9.7-10.3-22.1-15.1-36.1-16.1z" fill="#d39852"/><path d="M645.2 579.3c-3.5 5.2-6.8 10.5-10.6 15.5-4.3 5.7-8.9 11.2-13.4 16.8-1.2 1.6-2.5 3.1-3.6 4.8-2.5 3.9-5.9 6.9-9.3 9.9-5.5 4.7-10.9 9.6-16.2 14.6-3.9 3.7-7.9 7-12.5 9.9s-8.6 6.6-13.2 9.6c-7.2 4.8-14.6 9.3-21.9 13.9-.1.1-.2.1-.3.2-6.8 6.3-15.5 9.2-23.9 12.5-3.8 1.5-7.5 3-11.1 4.8-9.1 4.3-18.7 6.8-28.5 8.9-4.9 1.1-9.9 1.9-14.9 2.6-21.5 2.8-43.1 4-64.8 3.9-7.1 0-14.2.7-21.3.7-3.8 0-7.7-.2-11.3-1.2-7.3-2.2-14.7-4-22.2-5.4-8.4-1.6-16.3-4.5-24.2-7.5l-29.6-11a87.27 87.27 0 0 1-21.7-12.1c-7.6-5.7-15.6-10.7-23.2-16.5-4.9-3.7-9.3-8.2-14-12.3-2.1-1.8-4.3-3.3-6.6-4.7-3.1-1.9-5.5-4.3-7.7-7.2-1.8-2.3-4.2-4.3-6.1-6.6l-22.9-27.5c-2.6-3.1-5.2-6-7.6-9.2-1.6-2.2-2.9-4.7-4.6-7.3l467.2-.1z" fill="#b0864f"/><path d="M470.5 574.9h-174V249.4c.4 0 .9-.1 1.4-.1h51.3c1.8 0 3.8.6 5.4 1.5 4.9 2.6 9.3 6 11.7 11.2.6 1.4 1 3.1 1 4.6v106.8c0 3.3.4 3.7 3.6 3.7h33.8c4.8 0 4.7 0 4.7-4.7v-69.6c0-2.4-.3-4.8.1-7.1.9-5.3 4.9-9.1 10.5-7.5 2.7.8 4.3 2.8 4.5 6.3.2 2.5 0 5.1 0 7.6v166.4c0 3 .7 5.5 2.1 8.2 4.2 7.8 7.8 15.9 11.5 23.9 3.3 7 6 14.3 9.7 21.1 4.1 7.5 7 15.5 10 23.5 2.2 5.9 4.9 11.6 7.5 17.3 1.4 3 3 5.9 4.4 8.9.5 1 .5 2.2.8 3.5z" fill="#733416"/><path d="M292 574.9H177.6l2.2-6 12.9-29.3 8.1-18.2 12.1-28.1c2.7-6.1 6-11.9 8.7-17.9.9-2 1.4-4.4 1.5-6.5l.1-134.5c0-4.4 0-8.9.6-13.2.8-5.8 4.4-10.3 8.4-14.4 2-2 4-3.8 6.2-5.5a5.39 5.39 0 0 1 3-1c5.2-.1 10.4 0 15.6 0 2.2 0 3-.7 3-3v-23.6c-.2-8.6 3.3-15.5 9.6-21.1 2.5-2.2 5.2-3.5 8.7-3.3 4.5.2 9 .1 13.6.1l.1 325.5z" fill="#9b5933"/><path d="M645.7 574.8H519.5V573v-73.6-90.9c0-8.3.4-16.6-.2-24.8-.6-8 4-12.2 9.5-16.2.5-.4 1.3-.5 2-.5h53.4c5.4 0 10.7.4 16.1.6 6.6.2 10.6 4 13.5 9.5 1.4 2.7 2.1 5.4 2.1 8.4l-.1 115.3c0 2.6.5 4.8 1.5 7.1 3.2 7.3 4.8 15.1 6.7 22.8.4 1.8 1.2 3.5 1.9 5.3 5.4 12.9 11.7 25.3 19 37.3.3.5.4.9.8 1.5z" fill="#733416"/><path d="M515.2 441.4v133.4h-40.3V441.4h40.3z" fill="#9b5933"/><path d="M537.7 192.5c14 1 26.4 5.8 36.2 16 12.5 13 17.3 28.7 14.2 46.4-1 6-3.2 11.8-4.9 17.7-.2.6-.5 1.1-.9 1.6l-11.7 13.2c-4.6 5.1-10.7 7.6-17.1 9.3-1.8.5-3.7.4-5.5.8-1 .2-1.8 1-2.8 1.4-1.1.5-2.2 1.1-3.3 1.2-12.8 1.6-24.4-2.1-34.9-9.3-10.3-7.1-18.3-16.2-23-28-1.5-3.8-2.2-7.8-1.8-12 .3-3.4-.5-6.8-.2-10.1 1.9-21.3 12.7-36.1 32.6-44.3 5-2.1 10.3-3 15.7-3.2 2.5-.1 4.9-.4 7.4-.7z" fill="#f79751"/><path d="M177.6 574.9l-4.5.6 4.5-.6z" fill="#733416"/><path d="M955.6 544.2v-14.4c19.2-2.5 28.8-11 28.7-25.7l-.4-168.8c0-14.4-9.7-22.8-28.9-25.1v-14.4l124.4-.3c37.1-.1 65.2 6.8 84.4 20.6s28.9 33.1 28.9 57.9c.1 24.8-9.6 44.4-28.8 58.7-19.3 14.3-47.3 21.5-84.2 21.6h-12.4c-8 0-13.7 1.8-17 5.4s-5 9.5-5 17.8l.1 26.4c0 14.7 11 23.2 32.9 25.5v14.4l-122.7.4zm111.7-108.7h12.4c35.7-.1 53.6-20.3 53.4-60.5-.1-40.8-18-61.2-53.8-61.1h-12c-8 0-13.7 2-17.2 6s-5.2 10-5.2 18l.2 74.4c0 8.3 1.7 14.2 5 17.8 3.5 3.7 9.2 5.4 17.2 5.4zm198.3 110.3c-14.9 0-27.4-3.6-37.4-10.9s-15.1-18.3-15.1-33c0-16.5 7.8-29.7 23.5-39.5s41.8-17.6 78.3-23.6c6.7-1.1 11.1-2.7 13.2-4.8s3.2-6.1 3.2-12v-4c0-14.7-2.3-25.4-6.7-32.2s-11.3-10.2-20.6-10.1c-17.3 0-26 9.4-25.9 28.1 0 8.5-2.8 15-8.3 19.4s-12.2 6.6-20 6.6c-8.3 0-14.5-2.2-18.8-6.5-4.3-4.4-6.4-10-6.4-17 0-14.7 9.1-26.1 27.5-34.5 18.4-8.3 40.1-12.5 65.2-12.6 23.7-.1 41 5.3 51.8 16.1s16.3 30.6 16.3 59.4l.2 70.4c0 6.9 1.6 11.9 4.6 15 3.1 3.1 7.4 3.5 13 1.4v8.4c-5 10.4-15.8 15.6-32.4 15.7-11.5 0-20.4-2.7-26.8-8.1-6.4-5.5-10.2-11.8-11.2-19-.8-5.9-3.5-6.4-8-1.6-14.5 19.2-34.2 28.9-59.2 28.9zm27.1-30c11.2 0 20.4-4.1 27.8-12.3 7.3-8.1 11-18.2 10.9-30.2v-7.6c0-4.8-1.2-8-3.4-9.6-2.3-1.6-6.5-2.1-12.6-1.6-17.3 1.4-29.6 5.6-36.8 12.7s-10.8 15.2-10.7 24.2c0 7.2 2.1 13.1 6.2 17.6s10.3 6.8 18.6 6.8zM1424 543v-14c9.6-.5 16.3-2.8 20-6.7s5.6-10.8 5.6-20.6l-.2-96.4c0-8.8-2.1-14.7-6.2-17.6s-10.6-4-19.4-3.1v-14.4l60.4-10.5c6.1-1.1 10.9-.4 14.2 2s5 5.9 5 10.4v7.6c0 4 1.2 6.3 3.6 6.8s5.1-.9 8-4.4c14.1-16.3 30.6-24.5 49.5-24.5 12 0 22.2 3.6 30.6 10.9s12.6 16.6 12.7 27.8c0 9.6-2.6 17.1-7.9 22.4-5.3 5.4-12.2 8-20.8 8-7.5 0-13.6-1.9-18.4-5.8s-7.2-9.2-7.2-16.2c0-5.9-1.5-10.5-4.4-13.8s-6.8-5-11.6-5c-9.6 0-17.7 5.3-24.2 15.9-6.5 10.5-9.7 25.3-9.7 44.2l.1 55.6c0 9.9 2 16.7 5.8 20.6 3.9 3.9 11 6 21.4 6.5v14l-106.9.3zm196-.5v-14c9.6-.5 16.3-2.8 20-6.7s5.6-10.8 5.6-20.6l-.4-174.4c0-8.8-2.1-14.7-6.2-17.6-4.2-2.9-10.6-4.1-19.4-3.5v-14l60.4-11c12.8-2.2 19.2 2.9 19.2 15.1l.3 130.8c0 5.9 1.8 9.9 5.2 12s6.9 1.6 10.4-1.6l44.7-38.5c2.9-2.4 4.4-5.3 4.6-8.8.1-3.5-1.6-6.6-5.2-9.4s-8.8-4.3-15.4-4.6v-14l88.8-.2v14c-9.3.6-17.3 2.8-24 6.7s-14.6 9.8-24 17.9l-28.7 24.9 55 80.3c4.8 7.2 9.9 12.5 15.2 16s12.8 5.7 22.4 6.7v14l-107.2.3v-14c6.7-.8 10.4-3.5 11.2-8s-.4-8.8-3.6-12.8l-23.7-37.1c-2.9-4.5-5.2-7.3-6.6-8.4-1.5-1.1-3.7-.8-6.6.8-5.1 4.5-8.4 8.2-10 10.8-1.6 2.7-2.4 7.2-2.4 13.6v14c0 9.9 1.9 16.7 5.7 20.6 3.7 3.9 10.2 6 19.2 6.5v14l-104.5.2zm312.4-.7l-45.9-131.9c-3.2-9.9-7.2-17.3-12.1-22.4-4.8-5-11.6-9-20.4-12v-14l99.2-.2v14c-9.9 2.7-15.4 6.6-16.8 11.6-1.3 5.1 0 12.7 4.1 22.8l24.2 73.5c1.6 5.3 3.5 8.9 5.6 10.8s4.2 1.9 6.2 0 3.8-5.5 5.4-10.8l11.1-38c5-18.4 6.1-33.2 3.1-44.4-4-12.8-12.1-21.3-24.1-25.5v-14l99.2-.2v14c-9.9 2.7-15.4 6.6-16.8 11.6-1.3 5.1 0 12.7 4.1 22.8l23.8 73.5c1.6 5.3 3.5 8.9 5.6 10.8s4.2 1.9 6.2 0 3.8-5.5 5.4-10.8l10.7-35.6c7.9-29.1 11.1-47.7 9.5-55.8s-8.8-13.6-21.6-16.5v-14l80.4-.2v14c-11.7 2.7-20.2 6.5-25.6 11.5-5.3 5-9.6 12.6-12.7 23l-45.3 132.1-44.4.1-37.1-106.3-36.5 106.5h-44.5zm298.8 1.6c-14.9 0-27.4-3.6-37.4-10.9s-15.1-18.3-15.1-33c0-16.5 7.8-29.7 23.5-39.5s41.8-17.6 78.3-23.6c6.7-1.1 11.1-2.7 13.2-4.8s3.2-6.1 3.2-12v-4c0-14.7-2.3-25.4-6.7-32.2s-11.3-10.2-20.6-10.1c-17.3 0-26 9.4-25.9 28.1 0 8.5-2.8 15-8.4 19.4s-12.2 6.6-20 6.6c-8.3 0-14.5-2.2-18.8-6.5-4.3-4.4-6.4-10-6.4-17 0-14.7 9.1-26.1 27.5-34.5 18.4-8.3 40.1-12.5 65.2-12.6 23.7-.1 41 5.3 51.8 16.1s16.3 30.6 16.4 59.4l.2 70.4c0 6.9 1.6 11.9 4.6 15 3.1 3.1 7.4 3.5 13 1.4v8.4c-5 10.4-15.8 15.6-32.4 15.7-11.5 0-20.4-2.7-26.8-8.1-6.4-5.5-10.2-11.8-11.2-19-.8-5.9-3.5-6.4-8-1.6-14.5 19.2-34.2 28.8-59.2 28.9zm27.1-30.1c11.2 0 20.4-4.1 27.8-12.3 7.3-8.1 11-18.2 10.9-30.2v-7.6c0-4.8-1.2-8-3.4-9.6-2.3-1.6-6.5-2.1-12.6-1.6-17.3 1.4-29.6 5.6-36.8 12.7s-10.8 15.2-10.7 24.2c0 7.2 2.1 13.1 6.2 17.6 4.1 4.6 10.3 6.9 18.6 6.8zm172.3 106.4c-13.3 0-24.3-2.9-32.8-8.7-8.6-5.8-12.8-13.6-12.9-23.2 0-6.7 2-12.4 6.2-17.2 4.1-4.8 10.3-7.2 18.6-7.2 7.2 0 12.6 2 16.2 6.2 3.6 4.1 5.6 8.6 6 13.4s1.6 9.3 3.6 13.4 5.1 6.2 9.4 6.2c3.7 0 7.1-1.4 10-4.2s5.1-6.3 6.4-10.6c4.8-12.5 3.5-28-3.7-46.4l-51.9-132.7c-3.8-10.1-8-17.7-12.7-22.8-4.7-5-11.3-8.9-19.8-11.5v-14l100-.2v14c-9.9 2.7-15.6 6.5-17.2 11.4s-.1 12.6 4.5 23l29 73.1c3.2 8.5 6.2 12.7 9 12.6s5.8-4.5 9-13l13.1-34.8c6.9-18.7 10.8-33 11.7-43s-.4-16.9-3.9-20.6-9.8-6.6-18.8-8.8v-14l80.8-.2v14c-11.5 2.7-19.6 6.5-24.6 11.3-4.9 4.8-9.4 12.6-13.3 23.2l-58.8 152.9c-8.2 21.6-17.1 36.8-26.5 45.5-9.5 8.5-21.7 12.9-36.6 12.9z" fill="#9b5933"/></svg>