<?xml version="1.0" encoding="utf-8"?>
<!-- Generator: Adobe Illustrator 25.2.1, SVG Export Plug-In . SVG Version: 6.00 Build 0)  -->
<svg version="1.1" id="Layer_1" xmlns="http://www.w3.org/2000/svg" xmlns:xlink="http://www.w3.org/1999/xlink" x="0px" y="0px"
	 viewBox="0 0 2716.8 864" style="enable-background:new 0 0 2716.8 864;" xml:space="preserve">
<style type="text/css">
	.st0{fill:#FFE29E;stroke:#9B5933;stroke-width:10;stroke-miterlimit:10;}
	.st1{fill:none;}
	.st2{fill:#733416;}
	.st3{fill:#D39852;}
	.st4{fill:#B0864F;}
	.st5{fill:#9B5933;}
	.st6{fill:#F79751;}
</style>
<g>
	<circle class="st0" cx="411.8" cy="432" r="321.9"/>
	<path class="st1" d="M417.9,749.5c-9.1,0-18.3,0.3-27.4-0.1c-18.2-0.7-36.1-4.3-53.6-9c-21.8-5.9-42.8-14.1-63.3-23.6
		c-7.3-3.4-14.5-7.2-22-10.3c-5.8-2.5-10.4-6.6-15.4-10.2c-11.1-8-21.7-16.6-32.8-24.4c-11.4-8-20.5-18.2-29.1-29
		c-6.3-8-12.7-16-19.4-23.7c-7.2-8.4-12.6-17.9-17.8-27.6c-10.2-18.8-19.6-38-26.6-58.3c-6.5-18.9-11.3-38.1-13.2-58
		c-1-10.6-1.5-21.2-2.2-31.8c-0.4-5.2-0.9-10.5-1-15.7c-0.2-13.5,0.9-26.9,2.8-40.3c4.7-32.6,14.3-63.7,27.9-93.6
		c4.1-9.1,9-17.7,16-24.9c1.5-1.5,2.6-3.2,3.6-5.1c6.5-12.4,14.9-23.4,23.7-34.3c1.2-1.5,2.3-3.1,3.7-4.5
		c5.5-5.3,8.8-12.4,14.6-17.5c7.9-7,15.6-14.3,23.8-21c8.5-7,17.7-13.2,26.3-20.1c6.4-5.1,13.1-9.8,20.5-13.6
		c15-7.7,30.4-14.5,46.6-19.3c2-0.6,4-0.7,6-1.3c2.6-0.8,5.2-1.6,7.6-2.7c8.4-4.1,17.4-6.1,26.5-7.8c7.9-1.5,15.8-3.1,23.7-4.4
		c2.7-0.5,5.6-0.1,8.4-0.3c2.7-0.2,5.4-0.5,8.1-0.8c14.4-1.8,28.9-2.6,43.3-0.9c6.1,0.7,12.1,0.2,18.2,1c4.5,0.6,8.9,1.7,13.4,2.4
		c7.8,1.3,15.7,2.2,23.5,3.7c16.6,3.1,32.7,8,48.4,14.4c10,4.1,19.3,9.6,29.3,13.9c12.3,5.3,22.8,13.2,33.2,21.3
		c2.1,1.6,4.5,2.7,6.8,4.1c0.5,0.3,0.9,0.6,1.4,0.9c8.6,7.3,17.5,14.3,25.8,22c7.4,6.9,14.2,14.5,21.1,21.9
		c5.2,5.6,10.1,11.5,15.1,17.2c6.2,7.2,11.8,14.9,16.1,23.4c3.7,7.2,8.4,13.7,12.4,20.8c1.9,3.4,3.4,7,5.1,10.5
		c2.1,4.3,4.2,8.7,6.3,13c1.2,2.5,2.8,5,3.6,7.7c2.1,7.7,6.2,14.7,8.7,22.2c2,5.9,4.4,11.7,5.5,17.7c0.7,3.5,2.4,6.4,3.1,9.8
		c0.7,3.4,1.5,6.8,2,10.3c1.4,10.3,2.8,20.6,3.7,31c0.4,4.9-0.4,9.9-0.3,14.8c0.1,8.7,0.7,17.4,0.8,26.1
		c0.4,27.8-3.3,54.9-13.7,80.9c-4.5,11.3-8.8,22.7-13.7,33.8c-2.4,5.4-5.9,10.3-8.8,15.4c-4,7.1-8,14.3-12.1,21.4
		c-1.2,2.1-2.9,4-4.2,6c-1.8,2.9-3.5,5.9-5.2,8.8c-6.9,11.5-13.7,23.2-23.3,32.7c-7.9,7.8-16.3,15.2-24.6,22.6
		c-4.3,3.9-9,7.2-13,11.4c-15.2,15.5-33.7,25.9-53.1,35.1c-12.4,5.9-24.6,11.9-37.1,17.5c-4.7,2.1-9.9,3.2-14.9,4.4
		c-19.3,4.5-38.6,9-58,13.2c-3.2,0.7-6.7,0.5-10.1,0.5c-6.8,0.1-13.5,0-20.3,0C417.9,749.3,417.9,749.4,417.9,749.5z M255.8,295.9
		c-0.5,0-0.9,0.1-1.3,0.1c-4.8,0-9.6-0.1-14.5,0c-0.9,0-2,0.3-2.8,0.8c-5,3.1-8.9,7.5-12.5,12c-2.8,3.6-4.7,7.7-5.3,12.2
		c-0.4,3.3-0.5,6.7-0.5,10.1c0,44.4-0.1,88.9,0,133.3c0,4.7-0.8,8.9-3.1,13.2c-6.5,12.4-12.2,25.1-17.4,38.1
		c-5.4,13.5-11.8,26.5-17.5,39.8c-2.8,6.5-5.3,13.2-7.9,19.9c-0.3,0.9-0.3,2.2,0.1,3c2,3.9,4,7.8,6.5,11.4c2.6,3.8,5.9,7.1,8.8,10.6
		c6.3,7.6,12.4,15.2,18.8,22.7c3.5,4.1,7.2,8.1,10.9,12.1c1.2,1.3,2.4,2.7,3.9,3.6c5.9,3.7,11.3,8,16.3,12.8c2.1,2,4.2,4.1,6.6,5.8
		c7.1,5.1,14.4,9.9,21.5,15.1c5.7,4.2,11.5,8.4,18.1,11.1c10.1,4.1,20.4,8,30.6,11.9c9.3,3.5,18.5,7.2,28.2,9.2
		c8.2,1.7,16.5,3.4,24.5,6c3.2,1,6.8,1.4,10.1,1.3c13.6-0.2,27.1-0.7,40.7-1.2c8.6-0.3,17.3-0.7,25.9-1.3c5.7-0.4,11.4-1.6,17.2-1.9
		c9-0.5,17.8-2.2,26.5-4.5c7.1-1.9,14.1-3.8,20.8-6.8c5.9-2.7,11.8-5,17.8-7.5c5.9-2.4,11.8-4.8,17-8.7c1.3-1,2.6-2.1,4-2.9
		c9.8-5.7,19.2-12,28.2-18.8c1.8-1.4,3.4-3.1,5.4-4.1c4.3-2.3,8.1-5.2,11.5-8.6c6.5-6.4,13-12.8,20.4-18.3c1.6-1.2,3.2-2.6,4.5-4.2
		c4.2-5.5,8.3-11.1,12.5-16.6c3.1-4,6.4-7.9,9.4-12c3.8-5,7.3-10.2,11.1-15.2c1-1.4,1.3-2.7,0.4-4.1c-6.6-10-12.3-20.4-17.2-31.3
		c-2.3-5.1-4.7-10.3-6.2-15.7c-2.3-8-3.9-16.2-7.4-23.9c-0.3-0.7-0.3-1.6-0.3-2.4c0-39.4,0-78.9,0-118.3c0-1.8-0.3-3.8-1.1-5.5
		c-1.5-3.1-3.3-6-5.3-8.8c-2.2-3-5.5-5-9.2-5.4c-5.3-0.6-10.7-1.2-16-1.3c-18.7-0.1-37.4,0.1-56.1-0.2c-3.4,0-5.8,1.1-8.3,3
		c-1,0.8-1.9,1.5-2.8,2.4c-3.7,3.6-6.3,7.9-6.3,13.3c0,9.4,0.2,18.9,0.3,28.3c0.1,8.7,0,17.4,0,26.1c0,0.4-0.1,0.8-0.1,1.2
		c-0.4,0-0.7,0.1-1,0.1c-13.4,0-26.7,0-40.1,0c-3.2,0-3.5,0.2-3.5,3.4c0,40.2,0,80.3,0,120.5c0,0.5,0,1.1,0,1.6
		c-0.2,0-0.4,0.1-0.6,0.1c-2.4-5.6-4.9-11.2-7.2-16.9c-1.8-4.5-3.1-9.1-5-13.5c-2.5-5.6-5.6-10.9-8.2-16.5
		c-3.3-7.2-6.3-14.5-9.6-21.7c-3.1-6.8-6.4-13.5-9.8-20.2c-0.8-1.5-1.3-3-1.3-4.7c0-55.3,0-110.6,0-165.9c0-2.8,0.2-5.6,0-8.3
		c-0.3-4.5-1.7-8.7-6.3-10.5c-8.5-3.3-16,2.1-17.2,11.1c-0.4,3-0.1,6.2-0.1,9.3c0,22,0,44,0,66.1c0,0.6,0,1.2,0,1.8
		c-11.3,0-22.4,0-33.6,0c0-0.6,0-1.2,0-1.7c0-34.8,0-69.7,0-104.5c0-1.9-0.4-4-1.2-5.8c-2.9-6.8-8.5-11.1-15-14.3
		c-2-1-4.5-1.4-6.7-1.4c-17.2-0.1-34.4,0-51.6,0c-1.2,0-2.4,0-3.7,0c-4.9,0-9.9,0.2-14.8,0c-2.5-0.1-4.9,0.1-7.1,1.4
		c-8.9,5.1-14.6,12.6-15.3,22.9c-0.6,8.3-0.3,16.6-0.4,24.9C255.8,294.7,255.8,295.3,255.8,295.9z M477.8,246.8c0,1.4,0.1,2.8,0,4.2
		c-0.3,5.8,0.9,11.4,3.5,16.6c6.7,13.3,16.5,23.7,29.7,30.7c11,5.9,22.6,7.9,34.9,5.5c2.7-0.5,5.1-1.9,7.7-2.6
		c7.7-2.1,14.9-5,20.4-11.2c4.2-4.7,8.3-9.4,12.5-14c0.3-0.3,0.5-0.7,0.7-1.1c0.7-2.3,1.3-4.5,2.1-6.8c3.2-10,5.2-20.1,3.4-30.6
		c-3.8-22.1-16.1-37.4-37-45.5c-10.2-4-20.6-3.9-31.2-2.4C496.4,193.6,476,218.5,477.8,246.8z"/>
	<path class="st2" d="M255.8,295.9c0-0.6,0-1.1,0-1.7c0.1-8.3-0.2-16.7,0.4-24.9c0.8-10.3,6.5-17.8,15.3-22.9
		c2.1-1.2,4.5-1.5,7.1-1.4c4.9,0.2,9.9,0,14.8,0c1.2,0,2.4,0,3.7,0c17.2,0,34.4-0.1,51.6,0c2.3,0,4.7,0.5,6.7,1.4
		c6.5,3.1,12,7.4,15,14.3c0.8,1.8,1.2,3.8,1.2,5.8c0.1,34.8,0,69.7,0,104.5c0,0.5,0,1.1,0,1.7c11.2,0,22.3,0,33.6,0
		c0-0.6,0-1.2,0-1.8c0-22,0-44,0-66.1c0-3.1-0.3-6.2,0.1-9.3c1.2-9,8.7-14.4,17.2-11.1c4.6,1.8,6,6,6.3,10.5c0.2,2.8,0,5.5,0,8.3
		c0,55.3,0,110.6,0,165.9c0,1.7,0.5,3.1,1.3,4.7c3.4,6.7,6.6,13.4,9.8,20.2c3.3,7.2,6.3,14.5,9.6,21.7c2.6,5.6,5.7,10.9,8.2,16.5
		c2,4.4,3.2,9.1,5,13.5c2.3,5.7,4.8,11.2,7.2,16.9c0.2,0,0.4-0.1,0.6-0.1c0-0.5,0-1.1,0-1.6c0-40.2,0-80.3,0-120.5
		c0-3.2,0.3-3.5,3.5-3.4c13.4,0,26.7,0,40.1,0c0.3,0,0.6-0.1,1-0.1c0-0.4,0.1-0.8,0.1-1.2c0-8.7,0-17.4,0-26.1
		c-0.1-9.4-0.3-18.9-0.3-28.3c0-5.4,2.6-9.6,6.3-13.3c0.9-0.9,1.8-1.6,2.8-2.4c2.4-1.9,4.9-3,8.3-3c18.7,0.2,37.4,0,56.1,0.2
		c5.4,0,10.7,0.6,16,1.3c3.8,0.5,7,2.4,9.2,5.4c2,2.7,3.8,5.7,5.3,8.8c0.8,1.6,1.1,3.6,1.1,5.5c0.1,39.4,0,78.9,0,118.3
		c0,0.8,0,1.7,0.3,2.4c3.5,7.7,5.1,15.9,7.4,23.9c1.5,5.4,3.9,10.6,6.2,15.7c4.9,10.8,10.7,21.3,17.2,31.3c0.9,1.4,0.7,2.7-0.4,4.1
		c-3.7,5-7.3,10.2-11.1,15.2c-3,4.1-6.3,8-9.4,12c-4.2,5.5-8.2,11.2-12.5,16.6c-1.2,1.6-2.9,3-4.5,4.2c-7.4,5.5-13.9,11.9-20.4,18.3
		c-3.4,3.4-7.2,6.3-11.5,8.6c-2,1-3.6,2.8-5.4,4.1c-9,6.9-18.4,13.1-28.2,18.8c-1.4,0.8-2.7,1.9-4,2.9c-5.2,3.8-11.1,6.2-17,8.7
		c-6,2.4-11.9,4.8-17.8,7.5c-6.7,3-13.7,5-20.8,6.8c-8.7,2.3-17.4,4-26.5,4.5c-5.7,0.3-11.4,1.5-17.2,1.9c-8.6,0.6-17.3,1-25.9,1.3
		c-13.6,0.5-27.1,1-40.7,1.2c-3.4,0.1-6.9-0.3-10.1-1.3c-8-2.6-16.3-4.3-24.5-6c-9.7-2-19-5.8-28.2-9.2
		c-10.3-3.8-20.5-7.8-30.6-11.9c-6.6-2.7-12.4-6.9-18.1-11.1c-7-5.2-14.4-10-21.5-15.1c-2.4-1.7-4.5-3.8-6.6-5.8
		c-5-4.8-10.4-9.1-16.3-12.8c-1.5-0.9-2.7-2.3-3.9-3.6c-3.7-4-7.4-8-10.9-12.1c-6.3-7.5-12.5-15.1-18.8-22.7
		c-2.9-3.5-6.2-6.9-8.8-10.6c-2.5-3.6-4.5-7.5-6.5-11.4c-0.4-0.8-0.5-2.1-0.1-3c2.5-6.7,5-13.4,7.9-19.9
		c5.8-13.3,12.1-26.4,17.5-39.8c5.2-13,10.9-25.7,17.4-38.1c2.2-4.2,3.1-8.5,3.1-13.2c-0.1-44.4-0.1-88.9,0-133.3
		c0-3.4,0.1-6.8,0.5-10.1c0.6-4.5,2.5-8.6,5.3-12.2c3.6-4.6,7.5-8.9,12.5-12c0.8-0.5,1.8-0.8,2.8-0.8c4.8-0.1,9.6,0,14.5,0
		C254.9,296,255.2,295.9,255.8,295.9z M645.2,579.3c-155.5,0-311.1,0-467.1,0c1.6,2.7,2.9,5.2,4.6,7.3c2.4,3.2,5.1,6.2,7.6,9.2
		c7.6,9.2,15.2,18.3,22.9,27.5c1.9,2.3,4.3,4.2,6.1,6.6c2.2,2.8,4.7,5.3,7.7,7.2c2.3,1.4,4.6,3,6.6,4.7c4.7,4,9.1,8.5,14,12.3
		c7.6,5.7,15.6,10.8,23.2,16.5c6.7,5,14,9,21.7,12.1c9.8,3.8,19.7,7.3,29.6,11c7.9,3,15.9,5.9,24.2,7.5c7.5,1.4,14.9,3.3,22.2,5.4
		c3.6,1,7.5,1.2,11.3,1.2c7.1,0,14.2-0.8,21.3-0.7c21.7,0,43.3-1.1,64.8-3.9c5-0.7,10-1.5,14.9-2.6c9.8-2.1,19.4-4.6,28.5-8.9
		c3.7-1.7,7.4-3.3,11.2-4.8c8.4-3.3,17-6.2,23.9-12.5c0.1-0.1,0.2-0.1,0.3-0.2c7.3-4.6,14.7-9.1,21.9-13.9c4.5-3,8.6-6.7,13.2-9.6
		c4.5-2.8,8.6-6.2,12.5-9.9c5.3-5,10.7-9.8,16.2-14.6c3.5-3,6.9-5.9,9.3-9.9c1-1.7,2.3-3.2,3.6-4.8c4.5-5.6,9.1-11,13.4-16.8
		C638.4,589.8,641.7,584.5,645.2,579.3z M470.5,574.9c-0.3-1.3-0.4-2.4-0.8-3.4c-1.4-3-3-5.9-4.4-8.9c-2.6-5.7-5.3-11.4-7.5-17.3
		c-3-8-5.9-15.9-10-23.5c-3.7-6.8-6.4-14.1-9.7-21.1c-3.7-8-7.4-16.1-11.5-23.9c-1.5-2.7-2.1-5.2-2.1-8.2c0.1-55.5,0-111,0-166.4
		c0-2.5,0.1-5.1,0-7.6c-0.2-3.5-1.8-5.5-4.5-6.3c-5.6-1.5-9.6,2.2-10.5,7.5c-0.4,2.3-0.1,4.7-0.1,7.1c0,23.2,0,46.4,0,69.6
		c0,4.7,0,4.7-4.7,4.7c-11.3,0-22.5,0-33.8,0c-3.2,0-3.6-0.4-3.6-3.7c0-35.6,0-71.2,0-106.8c0-1.5-0.4-3.2-1-4.6
		c-2.4-5.2-6.8-8.5-11.7-11.2c-1.6-0.9-3.6-1.5-5.4-1.5c-17.1-0.1-34.2,0-51.3,0c-0.5,0-1,0.1-1.4,0.1c0,108.6,0,217,0,325.5
		C354.6,574.9,412.5,574.9,470.5,574.9z M292,574.9c0-108.6,0-217.1,0-325.6c-4.7,0-9.2,0.2-13.6-0.1c-3.5-0.2-6.3,1.1-8.7,3.3
		c-6.3,5.6-9.8,12.4-9.6,21c0.1,7.9,0,15.8,0,23.6c0,2.2-0.7,3-3,3c-5.2,0-10.4,0-15.6,0c-1,0-2.2,0.4-3,1c-2.2,1.7-4.2,3.6-6.2,5.5
		c-4.1,4-7.6,8.5-8.4,14.4c-0.6,4.3-0.6,8.8-0.6,13.2c0,44.8,0,89.6-0.1,134.5c0,2.2-0.5,4.5-1.5,6.5c-2.8,6-6,11.9-8.7,17.9
		c-4.2,9.3-8,18.7-12.1,28.1c-2.6,6.1-5.4,12.2-8.1,18.2c-4.3,9.8-8.7,19.5-12.9,29.3c-0.8,1.9-1.4,3.9-2.2,6
		C215.9,574.9,253.9,574.9,292,574.9z M645.7,574.8c-0.3-0.6-0.5-1-0.7-1.4c-7.3-11.9-13.6-24.4-19-37.3c-0.7-1.7-1.5-3.5-1.9-5.3
		c-1.8-7.7-3.4-15.5-6.7-22.8c-1-2.3-1.5-4.5-1.5-7.1c0.1-38.4,0.1-76.9,0.1-115.3c0-3-0.6-5.8-2.1-8.4c-2.9-5.5-7-9.3-13.5-9.5
		c-5.4-0.2-10.7-0.5-16.1-0.6c-17.8-0.1-35.6,0-53.4,0c-0.7,0-1.5,0.1-2,0.5c-5.5,4-10.1,8.3-9.5,16.2c0.6,8.2,0.2,16.5,0.2,24.8
		c0,30.3,0,60.6,0,90.9c0,24.5,0,49,0,73.6c0,0.6,0,1.2,0,1.8C561.6,574.8,603.5,574.8,645.7,574.8z M515.2,441.4
		c-13.5,0-26.9,0-40.3,0c0,44.5,0,88.9,0,133.4c13.5,0,26.9,0,40.3,0C515.2,530.3,515.2,485.9,515.2,441.4z"/>
	<path class="st3" d="M477.8,246.8c-1.8-28.3,18.6-53.2,46.6-57.2c10.6-1.5,21.1-1.6,31.2,2.4c20.9,8.2,33.2,23.4,37,45.5
		c1.8,10.5-0.3,20.6-3.4,30.6c-0.7,2.3-1.3,4.5-2.1,6.8c-0.1,0.4-0.4,0.8-0.7,1.1c-4.2,4.7-8.3,9.4-12.5,14
		c-5.5,6.1-12.7,9-20.4,11.2c-2.6,0.7-5.1,2.1-7.7,2.6c-12.3,2.4-24,0.4-34.9-5.5c-13.1-7.1-23-17.4-29.7-30.7
		c-2.6-5.2-3.8-10.7-3.5-16.6C477.9,249.6,477.8,248.2,477.8,246.8z M537.7,192.5c-2.5,0.3-4.9,0.6-7.4,0.8
		c-5.4,0.3-10.7,1.2-15.7,3.2c-19.8,8.1-30.7,22.9-32.6,44.3c-0.3,3.3,0.5,6.8,0.2,10.1c-0.3,4.2,0.3,8.2,1.8,12
		c4.7,11.7,12.7,20.9,23,28c10.5,7.2,22,10.9,34.8,9.3c1.1-0.1,2.2-0.7,3.3-1.2c1-0.4,1.8-1.2,2.8-1.4c1.8-0.4,3.7-0.3,5.5-0.8
		c6.4-1.8,12.5-4.2,17.1-9.3c4-4.3,7.8-8.8,11.7-13.2c0.4-0.4,0.7-1,0.9-1.6c1.7-5.9,3.9-11.7,4.9-17.7c3.1-17.8-1.8-33.4-14.2-46.4
		C564.1,198.3,551.7,193.5,537.7,192.5z"/>
	<path class="st4" d="M645.2,579.3c-3.5,5.2-6.8,10.5-10.6,15.5c-4.3,5.7-8.9,11.2-13.4,16.8c-1.2,1.6-2.5,3.1-3.6,4.8
		c-2.5,3.9-5.9,6.9-9.3,9.9c-5.5,4.7-10.9,9.6-16.2,14.6c-3.9,3.7-7.9,7-12.5,9.9c-4.6,2.9-8.6,6.6-13.2,9.6
		c-7.2,4.8-14.6,9.3-21.9,13.9c-0.1,0.1-0.2,0.1-0.3,0.2c-6.8,6.3-15.5,9.2-23.9,12.5c-3.8,1.5-7.5,3-11.1,4.8
		c-9.1,4.3-18.7,6.8-28.5,8.9c-4.9,1.1-9.9,1.9-14.9,2.6c-21.5,2.8-43.1,4-64.8,3.9c-7.1,0-14.2,0.7-21.3,0.7
		c-3.8,0-7.7-0.2-11.3-1.2c-7.3-2.2-14.7-4-22.2-5.4c-8.4-1.6-16.3-4.5-24.2-7.5c-9.9-3.7-19.8-7.2-29.6-11c-7.8-3-15-7-21.7-12.1
		c-7.6-5.7-15.6-10.7-23.2-16.5c-4.9-3.7-9.3-8.2-14-12.3c-2.1-1.8-4.3-3.3-6.6-4.7c-3.1-1.9-5.5-4.3-7.7-7.2
		c-1.8-2.3-4.2-4.3-6.1-6.6c-7.7-9.1-15.3-18.3-22.9-27.5c-2.6-3.1-5.2-6-7.6-9.2c-1.6-2.2-2.9-4.7-4.6-7.3
		C334.1,579.3,489.7,579.3,645.2,579.3z"/>
	<path class="st2" d="M470.5,574.9c-58.1,0-116,0-174,0c0-108.5,0-216.9,0-325.5c0.4,0,0.9-0.1,1.4-0.1c17.1,0,34.2-0.1,51.3,0
		c1.8,0,3.8,0.6,5.4,1.5c4.9,2.6,9.3,6,11.7,11.2c0.6,1.4,1,3.1,1,4.6c0.1,35.6,0,71.2,0,106.8c0,3.3,0.4,3.7,3.6,3.7
		c11.3,0,22.5,0,33.8,0c4.8,0,4.7,0,4.7-4.7c0-23.2,0-46.4,0-69.6c0-2.4-0.3-4.8,0.1-7.1c0.9-5.3,4.9-9.1,10.5-7.5
		c2.7,0.8,4.3,2.8,4.5,6.3c0.2,2.5,0,5.1,0,7.6c0,55.5,0,111,0,166.4c0,3,0.7,5.5,2.1,8.2c4.2,7.8,7.8,15.9,11.5,23.9
		c3.3,7,6,14.3,9.7,21.1c4.1,7.5,7,15.5,10,23.5c2.2,5.9,4.9,11.6,7.5,17.3c1.4,3,3,5.9,4.4,8.9
		C470.2,572.4,470.2,573.6,470.5,574.9z"/>
	<path class="st5" d="M292,574.9c-38.1,0-76.1,0-114.4,0c0.8-2.1,1.3-4.1,2.2-6c4.3-9.8,8.6-19.6,12.9-29.3
		c2.7-6.1,5.4-12.1,8.1-18.2c4-9.3,7.9-18.8,12.1-28.1c2.7-6.1,6-11.9,8.7-17.9c0.9-2,1.4-4.4,1.5-6.5c0.1-44.8,0.1-89.6,0.1-134.5
		c0-4.4,0-8.9,0.6-13.2c0.8-5.8,4.4-10.3,8.4-14.4c2-2,4-3.8,6.2-5.5c0.8-0.6,2-1,3-1c5.2-0.1,10.4,0,15.6,0c2.2,0,3-0.7,3-3
		c0-7.9,0.2-15.8,0-23.6c-0.2-8.6,3.3-15.5,9.6-21.1c2.5-2.2,5.2-3.5,8.7-3.3c4.5,0.2,9,0.1,13.6,0.1C292,357.8,292,466.3,292,574.9
		z"/>
	<path class="st2" d="M645.7,574.8c-42.1,0-84,0-126.2,0c0-0.6,0-1.2,0-1.8c0-24.5,0-49,0-73.6c0-30.3,0-60.6,0-90.9
		c0-8.3,0.4-16.6-0.2-24.8c-0.6-8,4-12.2,9.5-16.2c0.5-0.4,1.3-0.5,2-0.5c17.8,0,35.6,0,53.4,0c5.4,0,10.7,0.4,16.1,0.6
		c6.6,0.2,10.6,4,13.5,9.5c1.4,2.7,2.1,5.4,2.1,8.4c0,38.4,0,76.9-0.1,115.3c0,2.6,0.5,4.8,1.5,7.1c3.2,7.3,4.8,15.1,6.7,22.8
		c0.4,1.8,1.2,3.5,1.9,5.3c5.4,12.9,11.7,25.3,19,37.3C645.2,573.8,645.3,574.2,645.7,574.8z"/>
	<path class="st5" d="M515.2,441.4c0,44.5,0,88.9,0,133.4c-13.5,0-26.9,0-40.3,0c0-44.5,0-88.9,0-133.4
		C488.3,441.4,501.6,441.4,515.2,441.4z"/>
	<path class="st6" d="M537.7,192.5c14,1,26.4,5.8,36.2,16c12.5,13,17.3,28.7,14.2,46.4c-1,6-3.2,11.8-4.9,17.7
		c-0.2,0.6-0.5,1.1-0.9,1.6c-3.9,4.4-7.8,8.8-11.7,13.2c-4.6,5.1-10.7,7.6-17.1,9.3c-1.8,0.5-3.7,0.4-5.5,0.8c-1,0.2-1.8,1-2.8,1.4
		c-1.1,0.5-2.2,1.1-3.3,1.2c-12.8,1.6-24.4-2.1-34.9-9.3c-10.3-7.1-18.3-16.2-23-28c-1.5-3.8-2.2-7.8-1.8-12
		c0.3-3.4-0.5-6.8-0.2-10.1c1.9-21.3,12.7-36.1,32.6-44.3c5-2.1,10.3-3,15.7-3.2C532.8,193.1,535.2,192.8,537.7,192.5z"/>
	<path class="st2" d="M177.6,574.9l-4.5,0.6L177.6,574.9z"/>
	<line class="st1" x1="645.7" y1="574.8" x2="650.9" y2="574.8"/>
</g>
<g>
	<path class="st5" d="M955.6,544.2l0-14.4c19.2-2.5,28.8-11,28.7-25.7l-0.4-168.8c0-14.4-9.7-22.8-28.9-25.1l0-14.4l124.4-0.3
		c37.1-0.1,65.2,6.8,84.4,20.6s28.9,33.1,28.9,57.9c0.1,24.8-9.6,44.4-28.8,58.7c-19.3,14.3-47.3,21.5-84.2,21.6l-12.4,0
		c-8,0-13.7,1.8-17,5.4c-3.3,3.6-5,9.5-5,17.8l0.1,26.4c0,14.7,11,23.2,32.9,25.5l0,14.4L955.6,544.2z M1067.3,435.5l12.4,0
		c35.7-0.1,53.6-20.3,53.4-60.5c-0.1-40.8-18-61.2-53.8-61.1l-12,0c-8,0-13.7,2-17.2,6c-3.5,4-5.2,10-5.2,18l0.2,74.4
		c0,8.3,1.7,14.2,5,17.8C1053.6,433.8,1059.3,435.5,1067.3,435.5z"/>
	<path class="st5" d="M1265.6,545.8c-14.9,0-27.4-3.6-37.4-10.9c-10-7.3-15.1-18.3-15.1-33c0-16.5,7.8-29.7,23.5-39.5
		c15.7-9.8,41.8-17.6,78.3-23.6c6.7-1.1,11.1-2.7,13.2-4.8c2.1-2.1,3.2-6.1,3.2-12l0-4c0-14.7-2.3-25.4-6.7-32.2
		s-11.3-10.2-20.6-10.1c-17.3,0-26,9.4-25.9,28.1c0,8.5-2.8,15-8.3,19.4s-12.2,6.6-20,6.6c-8.3,0-14.5-2.2-18.8-6.5
		c-4.3-4.4-6.4-10-6.4-17c0-14.7,9.1-26.1,27.5-34.5c18.4-8.3,40.1-12.5,65.2-12.6c23.7-0.1,41,5.3,51.8,16.1
		c10.8,10.8,16.3,30.6,16.3,59.4l0.2,70.4c0,6.9,1.6,11.9,4.6,15c3.1,3.1,7.4,3.5,13,1.4l0,8.4c-5,10.4-15.8,15.6-32.4,15.7
		c-11.5,0-20.4-2.7-26.8-8.1c-6.4-5.5-10.2-11.8-11.2-19c-0.8-5.9-3.5-6.4-8-1.6C1310.3,536.1,1290.6,545.8,1265.6,545.8z
		 M1292.7,515.8c11.2,0,20.4-4.1,27.8-12.3c7.3-8.1,11-18.2,10.9-30.2l0-7.6c0-4.8-1.2-8-3.4-9.6c-2.3-1.6-6.5-2.1-12.6-1.6
		c-17.3,1.4-29.6,5.6-36.8,12.7c-7.2,7.1-10.8,15.2-10.7,24.2c0,7.2,2.1,13.1,6.2,17.6C1278.2,513.5,1284.4,515.8,1292.7,515.8z"/>
	<path class="st5" d="M1424,543l0-14c9.6-0.5,16.3-2.8,20-6.7c3.7-3.9,5.6-10.8,5.6-20.6l-0.2-96.4c0-8.8-2.1-14.7-6.2-17.6
		c-4.1-2.9-10.6-4-19.4-3.1l0-14.4l60.4-10.5c6.1-1.1,10.9-0.4,14.2,2c3.3,2.4,5,5.9,5,10.4l0,7.6c0,4,1.2,6.3,3.6,6.8
		c2.4,0.5,5.1-0.9,8-4.4c14.1-16.3,30.6-24.5,49.5-24.5c12,0,22.2,3.6,30.6,10.9c8.4,7.3,12.6,16.6,12.7,27.8
		c0,9.6-2.6,17.1-7.9,22.4c-5.3,5.4-12.2,8-20.8,8c-7.5,0-13.6-1.9-18.4-5.8s-7.2-9.2-7.2-16.2c0-5.9-1.5-10.5-4.4-13.8
		c-2.9-3.3-6.8-5-11.6-5c-9.6,0-17.7,5.3-24.2,15.9c-6.5,10.5-9.7,25.3-9.7,44.2l0.1,55.6c0,9.9,2,16.7,5.8,20.6
		c3.9,3.9,11,6,21.4,6.5l0,14L1424,543z"/>
	<path class="st5" d="M1620,542.5l0-14c9.6-0.5,16.3-2.8,20-6.7c3.7-3.9,5.6-10.8,5.6-20.6l-0.4-174.4c0-8.8-2.1-14.7-6.2-17.6
		c-4.2-2.9-10.6-4.1-19.4-3.5l0-14l60.4-11c12.8-2.2,19.2,2.9,19.2,15.1l0.3,130.8c0,5.9,1.8,9.9,5.2,12s6.9,1.6,10.4-1.6l44.7-38.5
		c2.9-2.4,4.4-5.3,4.6-8.8c0.1-3.5-1.6-6.6-5.2-9.4s-8.8-4.3-15.4-4.6l0-14l88.8-0.2l0,14c-9.3,0.6-17.3,2.8-24,6.7
		c-6.7,3.9-14.6,9.8-24,17.9l-28.7,24.9l55,80.3c4.8,7.2,9.9,12.5,15.2,16c5.3,3.5,12.8,5.7,22.4,6.7l0,14l-107.2,0.3l0-14
		c6.7-0.8,10.4-3.5,11.2-8c0.8-4.5-0.4-8.8-3.6-12.8l-23.7-37.1c-2.9-4.5-5.2-7.3-6.6-8.4c-1.5-1.1-3.7-0.8-6.6,0.8
		c-5.1,4.5-8.4,8.2-10,10.8c-1.6,2.7-2.4,7.2-2.4,13.6l0,14c0,9.9,1.9,16.7,5.7,20.6c3.7,3.9,10.2,6,19.2,6.5l0,14L1620,542.5z"/>
	<path class="st5" d="M1932.4,541.8l-45.9-131.9c-3.2-9.9-7.2-17.3-12.1-22.4c-4.8-5-11.6-9-20.4-12l0-14l99.2-0.2l0,14
		c-9.9,2.7-15.4,6.6-16.8,11.6c-1.3,5.1,0,12.7,4.1,22.8l24.2,73.5c1.6,5.3,3.5,8.9,5.6,10.8c2.1,1.9,4.2,1.9,6.2,0
		c2-1.9,3.8-5.5,5.4-10.8l11.1-38c5-18.4,6.1-33.2,3.1-44.4c-4-12.8-12.1-21.3-24.1-25.5l0-14l99.2-0.2l0,14
		c-9.9,2.7-15.4,6.6-16.8,11.6c-1.3,5.1,0,12.7,4.1,22.8l23.8,73.5c1.6,5.3,3.5,8.9,5.6,10.8c2.1,1.9,4.2,1.9,6.2,0
		c2-1.9,3.8-5.5,5.4-10.8l10.7-35.6c7.9-29.1,11.1-47.7,9.5-55.8s-8.8-13.6-21.6-16.5l0-14l80.4-0.2l0,14
		c-11.7,2.7-20.2,6.5-25.6,11.5c-5.3,5-9.6,12.6-12.7,23l-45.3,132.1l-44.4,0.1l-37.1-106.3l-36.5,106.5L1932.4,541.8z"/>
	<path class="st5" d="M2231.2,543.4c-14.9,0-27.4-3.6-37.4-10.9c-10-7.3-15.1-18.3-15.1-33c0-16.5,7.8-29.7,23.5-39.5
		c15.7-9.8,41.8-17.6,78.3-23.6c6.7-1.1,11.1-2.7,13.2-4.8c2.1-2.1,3.2-6.1,3.2-12l0-4c0-14.7-2.3-25.4-6.7-32.2
		s-11.3-10.2-20.6-10.1c-17.3,0-26,9.4-25.9,28.1c0,8.5-2.8,15-8.4,19.4s-12.2,6.6-20,6.6c-8.3,0-14.5-2.2-18.8-6.5
		c-4.3-4.4-6.4-10-6.4-17c0-14.7,9.1-26.1,27.5-34.5c18.4-8.3,40.1-12.5,65.2-12.6c23.7-0.1,41,5.3,51.8,16.1
		c10.8,10.8,16.3,30.6,16.4,59.4l0.2,70.4c0,6.9,1.6,11.9,4.6,15c3.1,3.1,7.4,3.5,13,1.4l0,8.4c-5,10.4-15.8,15.6-32.4,15.7
		c-11.5,0-20.4-2.7-26.8-8.1c-6.4-5.5-10.2-11.8-11.2-19c-0.8-5.9-3.5-6.4-8-1.6C2275.9,533.7,2256.2,543.3,2231.2,543.4z
		 M2258.3,513.3c11.2,0,20.4-4.1,27.8-12.3c7.3-8.1,11-18.2,10.9-30.2l0-7.6c0-4.8-1.2-8-3.4-9.6c-2.3-1.6-6.5-2.1-12.6-1.6
		c-17.3,1.4-29.6,5.6-36.8,12.7c-7.2,7.1-10.8,15.2-10.7,24.2c0,7.2,2.1,13.1,6.2,17.6C2243.8,511.1,2250,513.4,2258.3,513.3z"/>
	<path class="st5" d="M2430.6,619.7c-13.3,0-24.3-2.9-32.8-8.7c-8.6-5.8-12.8-13.6-12.9-23.2c0-6.7,2-12.4,6.2-17.2
		c4.1-4.8,10.3-7.2,18.6-7.2c7.2,0,12.6,2,16.2,6.2c3.6,4.1,5.6,8.6,6,13.4s1.6,9.3,3.6,13.4c2,4.1,5.1,6.2,9.4,6.2
		c3.7,0,7.1-1.4,10-4.2c2.9-2.8,5.1-6.3,6.4-10.6c4.8-12.5,3.5-28-3.7-46.4l-51.9-132.7c-3.8-10.1-8-17.7-12.7-22.8
		c-4.7-5-11.3-8.9-19.8-11.5l0-14l100-0.2l0,14c-9.9,2.7-15.6,6.5-17.2,11.4c-1.6,4.9-0.1,12.6,4.5,23l29,73.1
		c3.2,8.5,6.2,12.7,9,12.6s5.8-4.5,9-13l13.1-34.8c6.9-18.7,10.8-33,11.7-43s-0.4-16.9-3.9-20.6c-3.5-3.7-9.8-6.6-18.8-8.8l0-14
		l80.8-0.2l0,14c-11.5,2.7-19.6,6.5-24.6,11.3c-4.9,4.8-9.4,12.6-13.3,23.2l-58.8,152.9c-8.2,21.6-17.1,36.8-26.5,45.5
		C2457.7,615.3,2445.5,619.7,2430.6,619.7z"/>
</g>
</svg>
